<?xml version="1.0" encoding="UTF-8"?><!DOCTYPE svg PUBLIC "-//W3C//DTD SVG 1.0//EN" "http://www.w3.org/TR/2001/REC-SVG-20010904/DTD/svg10.dtd">
<svg xmlns="http://www.w3.org/2000/svg" width="300" height="400">
<defs>
<pattern id="sadness" width="15.825" height="26.667" patternTransform="scale(2)" patternUnits="userSpaceOnUse"><rect width="100%" height="100%" fill="rgb(158, 68, 255)"/><path fill="rgb(141.24545454545466,35.7,254.99999999999997)" d="M-3.176 15.632a1.5 1.5 0 0 0-.294.038 1.463 1.463 0 0 0-1.08 1.754l.013.05c.503 2.134 1.828 3.999 3.533 5.201a9.2 9.2 0 0 0 5.803 1.68c2.012-.098 3.962-.883 5.422-2.17a8.1 8.1 0 0 0 1.93-2.494 9 9 0 0 0 2.67 2.984 9.2 9.2 0 0 0 5.803 1.68c2.012-.098 3.962-.883 5.422-2.17 1.472-1.277 2.454-3.068 2.7-4.944a.22.22 0 0 0-.16-.234c-.11-.036-.221.037-.246.148a7.3 7.3 0 0 1-2.932 4.207 7.6 7.6 0 0 1-4.772 1.325c-1.656-.098-3.227-.76-4.392-1.815-1.178-1.043-1.938-2.478-2.098-3.95a.4.4 0 0 0-.036-.172 1.463 1.463 0 0 0-1.755-1.08 1.463 1.463 0 0 0-1.079 1.754l.012.05q.183.769.5 1.484a7.35 7.35 0 0 1-2.205 2.404 7.6 7.6 0 0 1-4.772 1.325c-1.656-.098-3.227-.76-4.392-1.815-1.178-1.043-1.938-2.478-2.098-3.95a.4.4 0 0 0-.036-.172 1.464 1.464 0 0 0-1.461-1.118M-11.51 2.298a1.463 1.463 0 0 0-1.373 1.792l.013.05c.503 2.135 1.828 4 3.533 5.202a9.2 9.2 0 0 0 5.802 1.68c2.012-.098 3.962-.883 5.422-2.171a8.1 8.1 0 0 0 1.931-2.493 9 9 0 0 0 2.67 2.983 9.2 9.2 0 0 0 5.802 1.68c2.012-.097 3.962-.882 5.422-2.17 1.473-1.276 2.454-3.067 2.7-4.944a.22.22 0 0 0-.16-.233c-.11-.037-.22.037-.245.147a7.3 7.3 0 0 1-2.933 4.208 7.6 7.6 0 0 1-4.771 1.325c-1.656-.098-3.227-.76-4.392-1.816-1.178-1.043-1.939-2.478-2.098-3.95a.4.4 0 0 0-.037-.172 1.463 1.463 0 0 0-1.754-1.08 1.463 1.463 0 0 0-1.08 1.755l.013.05c.12.512.29 1.007.5 1.483A7.35 7.35 0 0 1 1.25 8.03a7.6 7.6 0 0 1-4.773 1.325c-1.656-.098-3.226-.76-4.392-1.816-1.177-1.043-1.938-2.478-2.097-3.95a.4.4 0 0 0-.037-.172 1.464 1.464 0 0 0-1.46-1.118z"/></pattern>
 </defs>
  <rect width="300" height="400" rx="125" ry="130" fill="url(#sadness)"/>
<path d="M 50 250 Q 150 240.26548672566372 250 250" fill="white" stroke="white" stroke-width="2" stroke-linecap="round" />
<rect x="0%" y="28.5%" width="140" height="74.5" rx="125" ry="130" fill="rgb(96,187, 0)" />
<rect x="55%" y="21.5%" width="140" height="74.5" rx="125" ry="130" fill="rgb(96,187, 0)"/>

<ellipse rx="24.5" ry="14.499999999999998" cx="25%" cy="38.5%" fill="white" stroke="white" stroke-width="2"/>
<ellipse rx="24.5" ry="14.499999999999998" cx="75%" cy="31.5%" fill="white" stroke="white" stroke-width="2"/>
</svg>
    